<svg version="1.1" id="Layer_1" xmlns="http://www.w3.org/2000/svg" xmlns:xlink="http://www.w3.org/1999/xlink" x="0px" y="0px"
	 width="100%" viewBox="0 0 1024 1024" enable-background="new 0 0 1024 1024" xml:space="preserve">
<path fill="#000000" opacity="1.000000" stroke="none" 
	d="
M529.601929,199.555145 
	C530.897400,201.719849 532.439880,202.443710 534.662537,202.754150 
	C561.491638,206.501129 580.541809,228.284531 580.199768,255.395615 
	C580.111511,262.389862 581.451050,267.006561 587.452942,271.842316 
	C604.310486,285.424622 606.565186,313.656219 592.205627,332.018951 
	C586.793579,338.939850 585.228088,345.409515 585.060486,353.856628 
	C584.600037,377.070648 571.239990,396.697113 548.302307,404.624969 
	C544.902161,405.800171 542.751404,407.661530 540.850281,410.646484 
	C532.128662,424.340393 520.353638,433.719177 503.693695,435.727844 
	C490.737427,437.290070 479.429565,433.258362 469.283569,425.421783 
	C467.574341,424.101593 465.962311,422.655823 464.292786,421.283386 
	C464.187012,421.196411 463.972076,421.242157 463.478363,421.193970 
	C457.940186,427.076508 451.211060,431.471405 443.158295,433.758575 
	C419.981537,440.341278 394.144135,428.788971 387.678467,403.811584 
	C386.688507,399.987183 384.793182,398.079468 381.129669,396.689484 
	C365.232269,390.657806 352.979187,380.906616 349.145996,363.261292 
	C347.536865,355.853912 347.616974,348.402954 349.414520,341.050781 
	C350.227936,337.723694 349.995575,335.249207 347.260529,332.646820 
	C327.573273,313.914398 330.203552,276.347961 356.865692,262.056702 
	C359.519257,260.634369 360.031738,259.105652 359.806427,256.165527 
	C357.867798,230.863785 369.193451,214.224777 393.514313,206.386154 
	C396.084839,205.557663 397.692993,204.152649 398.946960,201.753372 
	C411.632751,177.481522 442.644623,174.188721 460.807037,190.222443 
	C462.706360,191.899155 464.135406,193.136139 466.670990,190.906540 
	C485.926575,173.974670 514.820923,178.756500 529.601929,199.555145 
M400.641571,398.592651 
	C407.631195,420.206940 431.194733,428.480652 447.991455,415.121765 
	C456.454742,408.390656 458.570923,398.834320 458.597900,388.739105 
	C458.715546,344.739807 458.669678,300.740112 458.678040,256.740540 
	C458.680450,244.074081 458.859039,231.403763 458.604919,218.742264 
	C458.347748,205.927322 449.576202,196.876434 436.059784,194.893295 
	C425.345734,193.321320 413.754395,200.924927 410.162476,211.881165 
	C406.061523,224.389877 411.515137,234.059204 424.351257,237.035889 
	C425.485565,237.298950 426.659302,237.447174 427.750153,237.831818 
	C430.739990,238.886017 432.323730,240.980820 432.301880,244.236954 
	C432.278839,247.666824 430.664490,249.965607 427.430054,250.974213 
	C425.333313,251.628052 423.111084,251.535126 420.990631,251.053604 
	C407.653839,248.025116 398.584686,240.539703 395.651947,226.661774 
	C394.633026,221.840210 393.740234,221.465820 389.263855,223.786194 
	C383.937134,226.547333 379.750763,230.543793 376.913086,235.817123 
	C370.889343,247.011230 371.314819,263.631866 386.192261,268.354950 
	C391.530304,270.049561 393.490967,273.663971 392.162659,278.107208 
	C391.089233,281.697968 386.577942,283.434265 381.568085,281.925354 
	C377.239166,280.621582 373.062714,278.783142 369.663300,275.764252 
	C367.387268,273.742981 365.608429,273.678680 363.082092,275.299835 
	C353.302277,281.575623 348.020935,290.482361 348.477783,302.009674 
	C348.930573,313.433655 354.487671,322.206146 364.682281,327.840973 
	C368.103577,329.732056 371.807159,330.436981 375.559692,331.225891 
	C379.501495,332.054596 381.631714,334.749115 381.196899,338.841034 
	C380.761841,342.935730 378.005341,344.828857 374.084869,345.261932 
	C371.876770,345.505829 369.737701,345.074860 367.705688,344.342834 
	C364.443756,343.167786 363.122589,344.665680 362.508087,347.625885 
	C359.265167,363.248138 371.090820,380.256409 387.100525,382.703735 
	C387.719421,381.224792 388.318359,379.683838 389.001068,378.180969 
	C391.989746,371.601501 396.466461,366.399811 403.024780,363.143311 
	C406.700409,361.318146 410.170868,361.160217 412.756226,364.875458 
	C414.864716,367.905518 413.967285,372.652496 410.193329,374.956818 
	C401.370544,380.343964 399.368927,388.319977 400.641571,398.592651 
M564.423767,314.429840 
	C572.998474,315.573395 578.579590,312.279694 581.074524,304.603516 
	C583.022156,298.611420 580.014832,291.911865 573.936401,288.701447 
	C567.895874,285.511047 561.881226,287.201202 556.583191,293.934784 
	C554.634766,296.411163 552.463623,297.563599 549.353271,297.397980 
	C546.532288,297.247803 543.680603,297.573151 540.870361,297.345123 
	C536.376587,296.980438 532.908752,298.509766 529.759460,301.742981 
	C522.795593,308.892365 515.499634,315.717834 508.516144,322.848755 
	C505.764008,325.659027 502.740204,327.083313 498.817535,327.073517 
	C492.161621,327.056915 485.505188,327.322052 478.848907,327.325562 
	C475.840363,327.327148 474.030121,328.222198 474.230652,331.599762 
	C474.429138,334.942261 476.441864,335.866119 479.329315,335.471619 
	C486.619232,334.475677 493.954163,334.711487 501.265778,334.745331 
	C505.056000,334.762848 507.912354,333.606049 510.562256,330.931641 
	C517.706238,323.721619 525.038879,316.698608 532.289124,309.593719 
	C533.476379,308.430206 534.597412,306.752563 536.315552,306.872559 
	C544.537964,307.446564 553.805786,303.308929 560.318237,312.066467 
	C561.048828,313.048920 562.545227,313.461914 564.423767,314.429840 
M479.836273,296.361053 
	C477.319397,296.281219 474.962433,296.509216 475.147247,299.898438 
	C475.257782,301.925903 474.387238,305.297760 477.160126,305.318542 
	C485.200653,305.378815 493.633850,307.840973 500.504883,300.368195 
	C511.763367,288.123657 523.716675,276.520813 535.181824,264.461884 
	C539.197449,260.238373 542.961548,257.092804 549.566956,257.495239 
	C555.449463,257.853607 558.922668,253.249786 560.837158,247.803162 
	C562.776367,242.286163 560.575867,237.922592 556.712891,234.386612 
	C552.668030,230.684128 547.879700,229.036377 542.486511,231.679016 
	C537.030579,234.352432 533.766846,238.786362 534.469421,244.833679 
	C535.307556,252.048004 532.520569,256.932251 527.415527,261.732605 
	C518.938293,269.703827 510.752167,278.059418 503.151031,286.863983 
	C497.034149,293.949341 490.327911,298.139679 479.836273,296.361053 
M481.864349,273.109436 
	C488.539124,274.309570 492.242584,269.828278 496.868835,266.133331 
	C507.602844,257.560150 513.210327,247.367538 510.703003,233.405914 
	C510.059113,229.820816 511.502930,227.125488 514.546997,224.882492 
	C518.317261,222.104401 520.605835,218.095291 520.491455,213.327820 
	C520.352234,207.519989 515.075745,202.139755 508.688782,200.662720 
	C503.859924,199.545990 498.172943,202.289047 495.174561,207.181183 
	C492.057617,212.266800 492.214020,219.394852 496.680634,223.316635 
	C500.859406,226.985672 501.767120,231.063034 501.399231,236.117615 
	C501.134033,239.761185 501.334686,243.439270 501.344482,247.101929 
	C501.348999,248.795258 501.238586,250.436417 499.947937,251.739822 
	C493.983582,257.763214 489.104279,265.640991 478.550842,263.469025 
	C475.759247,262.894531 474.381836,264.454681 474.296906,267.496307 
	C474.137756,273.197388 474.791748,273.870544 481.864349,273.109436 
M493.264191,404.493866 
	C493.813965,411.781677 498.558655,417.239258 505.311707,418.351593 
	C509.931091,419.112457 516.312622,415.128021 518.886963,409.875580 
	C521.855286,403.819275 520.694336,398.375549 514.675354,393.654022 
	C511.294128,391.001648 510.350098,387.789459 510.903046,384.025574 
	C512.026123,376.381134 509.572601,370.396393 503.395172,365.822876 
	C502.337433,365.039764 501.333679,364.075806 500.585297,363.000366 
	C496.077148,356.521820 489.859344,355.246979 482.585724,356.794098 
	C480.806885,357.172516 478.947510,357.160095 477.131226,357.378021 
	C475.398926,357.585876 474.582794,358.592590 474.367828,360.347900 
	C473.902557,364.146729 475.245483,366.243439 479.294006,365.614990 
	C487.750214,364.302277 494.345276,366.910736 499.669647,373.820129 
	C503.626221,378.954468 503.523529,389.259796 498.645203,393.445007 
	C495.486542,396.154846 493.236267,399.302063 493.264191,404.493866 
M547.084412,393.523163 
	C552.947815,391.091461 555.677490,387.106934 555.181030,380.380707 
	C554.647156,373.147430 554.970825,366.082764 561.521057,360.530640 
	C565.141724,357.461670 564.655029,352.276428 562.641907,347.933075 
	C560.266235,342.807648 555.917847,339.830231 550.400208,339.928589 
	C544.721497,340.029907 540.214478,342.971497 538.094543,348.555542 
	C536.077332,353.869080 536.816406,359.114838 541.216675,362.659454 
	C545.718811,366.286133 546.583923,370.576508 546.393005,375.829163 
	C546.182434,381.624054 546.479248,387.437378 547.084412,393.523163 
z"/>
<path fill="#000000" opacity="1.000000" stroke="none" 
	d="
M410.312592,517.000000 
	C410.304993,525.999878 410.389343,534.501038 410.266174,542.999268 
	C410.102997,554.256104 401.749878,563.106445 390.512482,564.451172 
	C382.525299,565.406982 374.530212,564.944763 366.543823,564.952148 
	C300.545258,565.013306 234.545990,564.826416 168.548431,565.088684 
	C152.056473,565.154175 142.414902,554.251099 142.491852,539.148438 
	C142.885925,461.818298 142.718704,384.485046 142.584122,307.153168 
	C142.574341,301.528137 144.362473,297.258270 148.211624,293.357422 
	C165.300003,276.039551 182.328888,258.662170 199.262238,241.192871 
	C202.982559,237.354797 207.057632,235.572556 212.508835,235.592407 
	C255.174271,235.747818 297.840515,235.669876 340.506500,235.698547 
	C346.914093,235.702850 350.658081,239.800674 349.036194,244.831192 
	C347.831665,248.567245 342.145996,252.987671 338.054047,253.267563 
	C336.228333,253.392456 334.388916,253.330536 332.555725,253.330688 
	C296.889618,253.333679 261.223541,253.333282 225.557449,253.333588 
	C223.590500,253.333603 221.623535,253.333603 220.190399,253.333603 
	C218.528061,254.994308 219.059036,256.395752 219.058701,257.671387 
	C219.055450,270.004272 219.164337,282.337585 219.093964,294.669922 
	C219.019653,307.692139 213.382477,313.266479 200.480087,313.285400 
	C188.980301,313.302216 177.477768,313.430756 165.982117,313.212036 
	C161.816605,313.132812 160.095856,314.135223 160.102753,318.737793 
	C160.212936,392.236237 160.151352,465.734955 160.157669,539.233582 
	C160.158188,545.350769 162.444214,547.637756 168.667908,547.641113 
	C240.500061,547.680054 312.332214,547.688599 384.164398,547.673462 
	C390.746033,547.672058 392.890045,545.580261 392.892303,539.009033 
	C392.901489,512.343201 392.790558,485.677368 392.811859,459.011597 
	C392.814148,456.149475 392.087219,452.957184 395.041382,450.429382 
	C398.012634,452.251068 401.332092,454.100098 404.502502,451.325775 
	C407.661041,448.561829 405.106873,445.246674 404.056458,441.553772 
	C409.691650,442.506012 410.306824,446.014099 410.305603,450.003021 
	C410.299774,469.002716 410.307739,488.002411 410.310730,507.002106 
	C410.311249,510.168060 410.311646,513.334045 410.312592,517.000000 
z"/>
<path fill="#000000" opacity="1.000000" stroke="none" 
	d="
M780.067993,640.491638 
	C786.593994,612.692932 806.265198,594.747314 833.178711,591.753601 
	C862.195862,588.525940 889.065796,602.010376 899.513611,626.800537 
	C909.463562,650.409607 908.775818,673.813965 892.821655,695.261292 
	C891.079773,697.602905 891.297791,699.318787 893.054626,701.418701 
	C896.471985,705.503601 899.658997,709.781372 903.078857,713.864136 
	C904.992432,716.148560 905.424500,717.956238 902.821777,720.125610 
	C899.116638,723.213806 895.599426,726.535828 892.107666,729.868835 
	C889.931091,731.946472 888.136475,731.833923 886.249939,729.535217 
	C882.871033,725.418213 879.232117,721.500610 876.056580,717.235535 
	C873.894958,714.332214 871.979858,713.939331 868.590881,715.380981 
	C850.414856,723.112793 832.032043,723.577637 813.959473,715.224792 
	C794.503052,706.232422 783.615173,690.483154 779.698730,669.664795 
	C777.893555,660.069031 778.402710,650.475281 780.067993,640.491638 
M856.100464,694.716919 
	C852.820496,689.651489 848.368591,685.595215 844.339050,681.184082 
	C841.699768,678.294861 841.407043,675.923096 844.685242,673.304321 
	C847.674683,670.916077 850.515747,668.320007 853.247620,665.637695 
	C855.945007,662.989258 858.100403,662.973267 860.700623,665.918640 
	C864.838501,670.605530 869.297241,675.009033 873.681335,679.596313 
	C880.703735,670.519470 882.547485,655.992249 878.567749,642.310730 
	C869.403809,610.806702 834.766296,605.806152 816.020386,624.280151 
	C800.271545,639.800476 799.835999,671.087097 814.892517,687.400452 
	C825.193787,698.561768 844.149353,702.220032 856.100464,694.716919 
z"/>
<path fill="#000000" opacity="1.000000" stroke="none" 
	d="
M388.841431,643.943970 
	C402.741699,626.995605 420.681915,623.021057 440.774261,627.181946 
	C460.509583,631.268982 473.220428,643.700623 476.669403,663.488220 
	C481.967651,693.885071 463.742828,718.365234 433.067963,720.409302 
	C419.696625,721.300415 407.155243,719.149780 396.413116,710.538696 
	C378.895142,696.495789 374.281769,671.069092 385.298828,649.798950 
	C386.291687,647.882141 387.498474,646.076111 388.841431,643.943970 
M415.328125,696.237915 
	C429.212097,704.330139 443.578674,700.289612 449.914429,686.243958 
	C453.882416,677.447449 453.796692,668.341797 449.458435,659.755493 
	C445.143738,651.215759 437.644226,646.715027 428.113220,646.490295 
	C419.535156,646.287903 412.632996,649.988525 408.157043,657.487793 
	C400.603912,670.142700 403.431213,686.266174 415.328125,696.237915 
z"/>
<path fill="#000000" opacity="1.000000" stroke="none" 
	d="
M685.389160,626.173767 
	C705.774414,628.683533 720.998047,644.370361 722.165100,668.036377 
	C722.889709,682.729553 724.283508,680.214233 710.494141,680.345642 
	C694.665894,680.496582 678.835022,680.362549 663.005493,680.408447 
	C661.057800,680.414124 658.996338,679.929077 657.198547,681.132935 
	C656.284973,693.163269 668.958679,703.807861 683.886719,701.301453 
	C689.662292,700.331848 694.706787,697.999023 697.769897,692.575073 
	C698.501404,691.279785 699.275269,690.034973 701.232056,690.349243 
	C707.421143,691.343079 713.629944,692.213867 720.347412,693.208740 
	C718.840027,699.520386 715.785889,704.255310 711.642578,708.468750 
	C692.085999,728.356262 644.588440,725.871338 635.295166,689.676880 
	C632.127075,677.338013 632.479492,664.863281 637.086670,652.879517 
	C644.565674,633.425964 662.476257,623.547607 685.389160,626.173767 
M694.001831,662.639160 
	C698.898743,662.774658 697.893127,659.779053 696.918884,656.971252 
	C694.505798,650.016602 687.888977,645.516968 680.015564,645.361755 
	C669.408386,645.152649 662.989075,649.128601 659.410583,657.672607 
	C657.821960,661.465515 658.640808,662.748657 662.760254,662.687683 
	C672.875488,662.537781 682.994568,662.643494 694.001831,662.639160 
z"/>
<path fill="#000000" opacity="1.000000" stroke="none" 
	d="
M268.622070,718.363159 
	C263.667755,718.367920 259.156281,718.150879 254.678513,718.445679 
	C250.348999,718.730652 248.811569,717.194214 248.882828,712.771667 
	C249.118912,698.119141 249.049744,683.460815 248.992508,668.805176 
	C248.980194,665.659180 248.951599,662.408508 248.195862,659.390015 
	C246.075577,650.921509 238.432037,645.704468 229.837616,646.436646 
	C221.288116,647.164978 213.663239,653.987732 213.326660,662.470520 
	C212.785629,676.105347 212.941422,689.770874 212.942200,703.423401 
	C212.943069,718.329956 213.012192,718.358154 198.134811,718.346436 
	C188.812988,718.339050 188.975327,719.866882 188.987473,709.241821 
	C189.016220,684.093445 189.070541,658.944031 188.847351,633.797424 
	C188.805237,629.051086 190.128433,627.206360 195.015167,627.534058 
	C200.474899,627.900269 205.978119,627.618164 211.523682,627.618164 
	C213.059906,630.986023 211.867416,634.450256 213.018997,637.531494 
	C226.392944,621.313232 255.269867,622.777710 265.960724,637.441650 
	C270.292664,643.383545 273.153137,649.962463 273.253937,657.252747 
	C273.516388,676.235413 273.271515,695.224609 273.420746,714.209717 
	C273.447357,717.598022 272.227112,718.752136 268.622070,718.363159 
z"/>
<path fill="#000000" opacity="1.000000" stroke="none" 
	d="
M580.999756,720.895630 
	C571.117493,720.495605 562.057312,718.656433 554.037537,713.345520 
	C539.970398,704.029663 533.887329,690.510559 533.290466,674.004089 
	C532.460205,651.040283 546.413879,632.447998 568.648926,627.192688 
	C591.265442,621.847351 611.191650,629.697510 621.062439,647.873657 
	C622.486145,650.495239 623.820618,653.175354 623.961853,656.839050 
	C616.881531,659.071838 609.418579,659.353394 602.131409,660.508850 
	C600.509277,660.766113 599.979675,659.284668 599.246521,658.171509 
	C593.018616,648.715332 584.535828,645.096558 575.068115,647.816895 
	C565.518494,650.560791 558.699463,659.358704 558.372559,669.698730 
	C558.231506,674.161560 557.911255,678.635132 559.123291,683.087646 
	C561.737305,692.690796 569.003235,699.547241 579.344727,700.386475 
	C588.303284,701.113464 595.640625,697.447510 599.920715,689.144104 
	C601.238159,686.588257 602.711853,685.980835 605.428833,686.596008 
	C611.528442,687.977173 617.696411,689.056641 624.471985,690.383423 
	C622.039856,698.770691 617.934753,705.385376 611.547729,710.510559 
	C602.773865,717.551208 592.542297,720.528381 580.999756,720.895630 
z"/>
<path fill="#000000" opacity="1.000000" stroke="none" 
	d="
M343.709106,650.838684 
	C346.105835,644.219482 348.357574,637.959473 350.712311,631.738403 
	C351.325287,630.119080 351.506866,627.824463 353.901062,627.794678 
	C361.495911,627.700073 369.092651,627.759705 377.200836,627.759705 
	C376.034790,634.103271 373.354736,639.123840 371.282501,644.292419 
	C362.120392,667.144470 352.564117,689.839417 343.530670,712.741211 
	C341.718262,717.336060 339.311920,718.735962 334.677643,718.438782 
	C329.040619,718.077209 323.359924,718.304749 317.700897,718.417175 
	C315.064087,718.469482 313.333252,717.651794 312.320160,715.036560 
	C301.446228,686.966248 290.503448,658.922546 279.602142,630.862732 
	C279.317322,630.129578 279.288513,629.296997 278.997223,627.751892 
	C287.113342,627.751892 294.863434,627.640381 302.607330,627.810730 
	C305.411469,627.872437 305.526520,630.709778 306.241302,632.616760 
	C312.660004,649.741516 318.976501,666.904419 325.389465,684.031311 
	C326.121490,685.986328 326.359283,688.296387 329.035004,689.975708 
	C333.938019,676.929016 338.770264,664.070740 343.709106,650.838684 
z"/>
<path fill="#000000" opacity="1.000000" stroke="none" 
	d="
M238.545135,529.212097 
	C238.418640,519.709351 233.216034,515.543274 224.868927,513.289795 
	C220.221680,512.035156 216.930054,507.925476 213.939743,504.083344 
	C211.362030,500.771362 210.225403,497.278839 213.735229,493.832397 
	C217.580521,490.056549 223.714264,489.253784 226.724838,492.842804 
	C232.937485,500.249237 240.908508,501.544556 249.731552,500.656097 
	C251.517944,500.476227 253.362305,500.038422 254.994949,499.306793 
	C262.948792,495.742249 263.717407,488.603851 256.714722,483.460144 
	C251.897827,479.921936 246.166092,478.664856 240.491913,477.349335 
	C234.152481,475.879517 227.864319,474.302307 222.490112,470.366211 
	C213.339661,463.664307 210.153061,454.338409 211.878693,443.575958 
	C213.569229,433.032440 219.783005,425.593658 230.296585,422.766449 
	C234.964127,421.511261 237.282593,419.838043 237.092514,414.537628 
	C236.900497,409.183228 240.081741,406.308167 244.492142,406.345764 
	C248.884720,406.383209 251.380615,409.096436 251.312836,414.760040 
	C251.257416,419.391205 252.669342,421.768738 257.533325,422.980316 
	C264.679474,424.760376 270.330200,429.235687 274.275055,435.601379 
	C277.251160,440.403839 276.876007,443.084167 272.925293,445.934906 
	C268.238037,449.317230 263.228851,449.058075 260.042511,445.268463 
	C253.302002,437.251831 243.679611,434.848572 235.064545,439.030182 
	C227.162323,442.865723 226.369675,450.225494 233.277374,455.564850 
	C237.759384,459.029175 243.137878,460.272736 248.452179,461.612457 
	C253.950897,462.998688 259.321411,464.644958 264.372253,467.307312 
	C276.177551,473.530029 279.916260,483.738983 278.194550,496.206116 
	C276.795715,506.335358 270.045746,512.199219 260.743683,515.441406 
	C259.020905,516.041870 257.266937,516.765503 255.481369,516.928406 
	C251.936234,517.251770 251.175308,519.221313 251.349380,522.366577 
	C251.512039,525.305298 251.968384,528.514954 249.023468,530.593567 
	C245.344177,533.190552 241.888504,532.907043 238.545135,529.212097 
z"/>
<path fill="#000000" opacity="1.000000" stroke="none" 
	d="
M763.127808,652.000000 
	C763.125732,672.480469 763.024170,692.461853 763.198425,712.440796 
	C763.237610,716.933167 761.904785,718.782288 757.219177,718.442017 
	C752.249573,718.080994 747.233154,718.264221 742.240234,718.365417 
	C739.487732,718.421143 738.538391,717.426331 738.494324,714.567810 
	C738.173462,693.765503 738.136780,672.968323 738.341736,652.162048 
	C738.515503,634.528503 737.863464,616.891296 738.422302,599.247681 
	C738.532593,595.764771 739.280518,594.458008 742.819031,594.599609 
	C747.972290,594.805725 753.146484,594.800354 758.299744,594.590881 
	C762.006165,594.440186 763.219849,595.903259 763.191895,599.551025 
	C763.059265,616.866516 763.129944,634.183533 763.127808,652.000000 
z"/>
<path fill="#000000" opacity="1.000000" stroke="none" 
	d="
M169.349625,626.000122 
	C169.348877,654.951599 169.354324,683.403137 169.342087,711.854614 
	C169.339310,718.321655 169.311188,718.324341 162.675751,718.344299 
	C158.516205,718.356812 154.337524,718.113281 150.202209,718.433533 
	C145.730042,718.779968 144.548782,716.970764 144.572601,712.680420 
	C144.729614,684.396179 144.653351,656.110596 144.653854,627.825500 
	C144.654022,618.508057 144.787292,609.187866 144.593506,599.874512 
	C144.515503,596.126404 145.519684,594.359375 149.600830,594.574585 
	C154.744446,594.845764 159.916656,594.762756 165.069443,594.603394 
	C168.351685,594.501953 169.422562,595.892700 169.379517,599.045776 
	C169.259171,607.862366 169.344955,616.681763 169.349625,626.000122 
z"/>
<path fill="#000000" opacity="1.000000" stroke="none" 
	d="
M233.000061,335.680695 
	C259.331757,335.685303 285.163483,335.707184 310.995117,335.677795 
	C315.167999,335.673065 318.477478,336.964447 320.429138,340.902313 
	C321.941315,343.953491 321.318756,346.832794 319.491547,349.383789 
	C317.254425,352.507141 313.829407,353.252930 310.182434,353.250214 
	C300.516418,353.243073 290.850372,353.243835 281.184357,353.243744 
	C254.019470,353.243439 226.854584,353.251038 199.689697,353.240021 
	C192.857269,353.237244 189.125992,350.634155 188.685211,345.646301 
	C188.116867,339.214844 191.028076,335.776794 197.502563,335.713806 
	C209.167404,335.600311 220.834122,335.681244 233.000061,335.680695 
z"/>
<path fill="#000000" opacity="1.000000" stroke="none" 
	d="
M266.000000,391.263123 
	C243.518265,391.270691 221.536530,391.289734 199.554840,391.275482 
	C193.559601,391.271606 189.773727,389.028503 188.814545,385.050568 
	C187.268799,378.640015 190.924438,373.729828 197.716980,373.715790 
	C235.518723,373.637634 273.320740,373.657349 311.122589,373.717896 
	C317.060822,373.727386 321.039795,377.142181 321.248352,381.931793 
	C321.471222,387.049500 317.209991,391.129669 310.962463,391.191742 
	C296.142883,391.339111 281.320984,391.253540 266.000000,391.263123 
z"/>
<path fill="#000000" opacity="1.000000" stroke="none" 
	d="
M518.331299,636.051270 
	C518.334534,661.658386 518.345520,686.773621 518.332825,711.888855 
	C518.329590,718.353149 518.295288,718.355164 511.643524,718.367493 
	C507.818024,718.374512 503.965942,718.091003 500.173615,718.447144 
	C495.208069,718.913513 493.924286,716.723755 493.956665,712.119873 
	C494.116882,689.334473 494.040375,666.547424 494.046906,643.760925 
	C494.048004,639.935486 494.164612,636.105286 494.011780,632.285950 
	C493.877472,628.929321 495.105896,627.412292 498.625702,627.589172 
	C502.607208,627.789185 506.606934,627.617920 510.598755,627.621582 
	C518.299744,627.628601 518.299744,627.632568 518.331299,636.051270 
z"/>
<path fill="#000000" opacity="1.000000" stroke="none" 
	d="
M159.184448,824.901184 
	C162.083603,831.221741 164.835114,837.194519 168.161911,844.416077 
	C172.287506,835.507874 175.807663,827.858093 179.379822,820.232788 
	C180.139999,818.610107 180.634338,816.737061 182.547089,815.943726 
	C187.053558,814.074524 190.320694,816.164429 190.335373,821.019287 
	C190.369553,832.342773 190.345535,843.666443 190.342896,854.990051 
	C190.342300,857.535706 190.595566,860.026611 186.725815,860.117737 
	C182.712814,860.212097 182.611267,857.839417 182.639908,854.933716 
	C182.706573,848.166931 182.661163,841.399170 181.982529,834.472229 
	C177.918442,838.280273 176.617233,843.423035 174.238602,847.948181 
	C173.333191,849.670654 172.917603,851.917847 170.508835,852.231689 
	C166.938721,852.696960 163.692444,852.830566 161.955933,848.422485 
	C159.774887,842.886292 156.992142,837.587158 153.355484,832.313904 
	C153.355484,839.863892 153.344986,847.413879 153.361420,854.963867 
	C153.366867,857.462830 153.910004,860.041260 149.914627,860.106567 
	C146.032227,860.170166 145.663177,858.008423 145.681442,854.990540 
	C145.750931,843.500854 145.688080,832.010376 145.736816,820.520508 
	C145.744873,818.623108 145.238663,816.062683 148.165863,815.906433 
	C150.810379,815.765381 153.981049,814.492371 155.770981,817.821106 
	C156.951233,820.015930 157.954361,822.305969 159.184448,824.901184 
z"/>
<path fill="#000000" opacity="1.000000" stroke="none" 
	d="
M305.227356,797.494690 
	C311.102234,803.812378 316.897491,804.071045 320.431183,798.369934 
	C321.397858,796.810303 322.211182,795.148193 321.042847,793.170593 
	C318.997375,793.871643 317.034088,794.824890 314.965790,795.201477 
	C308.500488,796.378784 302.942078,793.863892 299.998505,788.683838 
	C296.420624,782.387451 296.986420,773.616699 301.302887,768.464966 
	C304.968719,764.089783 311.103485,762.580383 317.228973,764.681274 
	C319.424255,765.434204 321.245819,766.015747 323.785217,764.954041 
	C326.786743,763.699219 329.558197,764.244446 329.395752,768.957947 
	C329.109161,777.270752 329.463226,785.604248 329.247009,793.921204 
	C329.051422,801.444702 323.964874,807.221863 317.082214,808.306946 
	C307.990875,809.740295 301.941589,806.885437 298.982422,799.577942 
	C300.594025,797.952332 302.335632,796.607422 305.227356,797.494690 
M309.970520,771.474121 
	C308.430664,772.241150 307.294525,773.412109 306.477966,774.918030 
	C304.371613,778.802490 305.206360,784.199951 308.445282,786.769104 
	C311.375519,789.093323 314.466644,789.372925 317.613617,787.092468 
	C321.340118,784.392029 322.643158,779.722961 320.461609,775.604309 
	C318.403107,771.717957 315.334534,769.519897 309.970520,771.474121 
z"/>
<path fill="#000000" opacity="1.000000" stroke="none" 
	d="
M299.423645,862.400085 
	C302.193970,860.634338 303.501587,862.271790 305.192078,863.835754 
	C307.873932,866.317078 311.092194,867.602234 314.789337,865.886536 
	C318.374390,864.222900 319.744659,861.362488 319.584106,857.376282 
	C309.213074,861.197266 302.804535,860.107605 298.782440,854.036987 
	C294.409485,847.436890 294.868073,838.084900 299.829102,832.691650 
	C304.572174,827.535400 312.071564,827.099609 320.245758,831.741699 
	C320.644043,828.814087 322.708374,828.562988 324.992126,828.961914 
	C327.890198,829.468140 327.250854,831.875488 327.267822,833.736633 
	C327.340729,841.720459 327.414551,849.707397 327.266174,857.689148 
	C327.153809,863.733765 324.970642,868.796387 319.034515,871.343811 
	C312.644073,874.086121 306.268463,874.038635 300.752197,869.479797 
	C298.976532,868.012329 294.837250,865.948792 299.423645,862.400085 
M305.108826,838.692383 
	C302.084717,845.306274 304.367920,851.768066 310.091248,852.583496 
	C314.162811,853.163696 317.309418,851.868835 318.865814,847.743408 
	C320.450317,843.543579 319.900299,839.606628 316.289062,836.949280 
	C312.675964,834.290588 308.790436,834.502869 305.108826,838.692383 
z"/>
<path fill="#000000" opacity="1.000000" stroke="none" 
	d="
M367.907288,842.013306 
	C367.908234,839.020081 367.826874,836.519653 367.937378,834.027771 
	C368.021576,832.129089 367.447235,829.731873 370.072479,829.028076 
	C372.325012,828.424133 374.388153,828.904114 375.536926,831.258240 
	C382.748383,827.318359 387.152649,827.503479 393.716400,832.137268 
	C396.796356,829.590820 400.306305,828.117188 404.565460,828.511536 
	C410.173706,829.030823 413.980194,832.302246 414.244720,837.960327 
	C414.532013,844.105469 414.279846,850.274414 414.336334,856.432312 
	C414.359100,858.912842 413.374542,860.128540 410.789520,860.049500 
	C408.433136,859.977417 406.940674,859.115051 406.914825,856.560669 
	C406.865997,851.734314 406.901917,846.906006 406.773346,842.081970 
	C406.682648,838.677246 405.773499,835.493286 401.617432,835.483887 
	C397.522247,835.474609 395.742065,838.487427 395.480621,842.063171 
	C395.141602,846.700317 395.281250,851.379150 395.357758,856.037598 
	C395.402191,858.744324 394.333374,859.989319 391.562012,860.032410 
	C388.783325,860.075684 387.649231,858.868774 387.683838,856.148743 
	C387.743073,851.489136 387.653534,846.827942 387.667297,842.167480 
	C387.677063,838.855957 386.726532,836.031372 383.075928,835.503235 
	C379.094513,834.927246 376.930634,837.245728 375.965088,840.943604 
	C374.764069,845.543457 375.573608,850.219177 375.363220,854.855286 
	C375.248688,857.379211 375.651642,860.018982 371.785004,860.031616 
	C368.113281,860.043579 367.921844,857.659546 367.921417,854.993530 
	C367.920715,850.832336 367.912506,846.671082 367.907288,842.013306 
z"/>
<path fill="#000000" opacity="1.000000" stroke="none" 
	d="
M700.995850,829.149658 
	C702.725647,830.230591 704.095459,831.146423 705.634583,832.175415 
	C708.522339,829.745972 711.700867,828.380859 715.631409,828.555664 
	C722.117004,828.843933 726.024719,832.137756 726.275818,838.561279 
	C726.503174,844.376953 726.277588,850.209167 726.352661,856.032715 
	C726.386292,858.643066 725.565430,860.133728 722.661438,860.058411 
	C720.021729,859.989990 718.667542,858.977173 718.714233,856.174194 
	C718.791748,851.516113 718.740295,846.855042 718.689087,842.195862 
	C718.651489,838.776611 717.883057,835.589172 713.710876,835.488647 
	C709.531372,835.387878 707.885376,838.589111 707.535339,842.041687 
	C707.100769,846.326904 707.319031,850.684509 707.363037,855.009766 
	C707.390625,857.721497 707.248779,859.998657 703.584595,860.047302 
	C699.834961,860.096924 699.780701,857.704163 699.784912,855.046936 
	C699.792114,850.554077 699.768738,846.060791 699.714539,841.568237 
	C699.676514,838.420776 698.513733,835.913635 695.100281,835.458862 
	C691.688171,835.004272 689.320312,836.678345 688.204407,839.920776 
	C686.531250,844.782532 687.567383,849.826904 687.388245,854.785461 
	C687.285095,857.641968 687.357849,860.139893 683.346191,860.054443 
	C679.507385,859.972717 679.746338,857.428589 679.747498,854.878784 
	C679.750732,847.722839 679.740967,840.566772 679.772888,833.410950 
	C679.780884,831.609314 679.505249,829.490479 681.998718,829.048157 
	C684.213013,828.655396 686.473877,828.565613 687.058594,832.108704 
	C691.098938,828.120544 695.795776,828.178467 700.995850,829.149658 
z"/>
<path fill="#000000" opacity="1.000000" stroke="none" 
	d="
M555.017334,837.852173 
	C562.126587,845.209045 560.222290,854.893188 551.254517,858.828979 
	C541.454285,863.130127 529.579224,859.489380 526.302002,851.150208 
	C526.011963,850.412170 525.982727,849.571655 525.803955,848.628723 
	C529.462708,846.637939 532.171448,845.979858 535.035095,850.234192 
	C537.946167,854.558960 544.920532,854.759583 548.967957,851.515930 
	C552.613281,848.594543 552.387573,845.243774 548.067932,843.518372 
	C545.024719,842.302917 541.647644,841.925781 538.422119,841.163940 
	C528.430115,838.804016 523.763550,830.113098 528.322815,822.089722 
	C531.516846,816.468811 537.241699,815.160278 542.940674,815.056335 
	C548.517517,814.954468 553.945435,816.394897 557.038818,821.903992 
	C557.984680,823.588562 559.493164,825.678040 557.087708,827.133179 
	C554.807800,828.512512 552.038940,829.535828 550.114197,826.362427 
	C547.881592,822.681458 544.527222,821.804016 540.628723,822.502930 
	C537.611267,823.043823 535.101501,824.843750 534.864563,827.935547 
	C534.627441,831.030212 537.286621,832.524597 539.962036,833.262146 
	C544.903809,834.624634 550.178650,834.840942 555.017334,837.852173 
z"/>
<path fill="#000000" opacity="1.000000" stroke="none" 
	d="
M517.725952,612.591797 
	C511.407257,619.342224 502.891052,620.185791 496.638733,614.956238 
	C490.799622,610.072327 489.911713,600.598083 494.695496,594.221802 
	C499.247284,588.154724 508.525604,586.773865 514.759460,591.235657 
	C521.535339,596.085510 522.811157,604.485168 517.725952,612.591797 
z"/>
<path fill="#000000" opacity="1.000000" stroke="none" 
	d="
M231.363770,795.903381 
	C224.053253,794.938721 219.784485,791.011414 218.177322,784.342285 
	C216.641159,777.967651 217.529160,771.814331 222.633209,767.425171 
	C227.306442,763.406433 233.050171,762.479858 239.000870,764.906799 
	C241.876434,766.079590 244.054016,768.075012 245.517944,770.807434 
	C249.833069,778.861816 247.865417,782.236816 239.004150,782.347473 
	C234.757523,782.400513 230.438293,781.666077 226.227997,782.920410 
	C227.389130,788.633545 232.031204,790.956055 236.846054,788.351868 
	C237.994797,787.730530 238.860275,786.582642 240.011978,785.970154 
	C242.007080,784.909180 244.068665,785.419556 245.486145,786.945068 
	C247.031357,788.608154 245.415207,790.085999 244.365753,791.229553 
	C240.997375,794.900024 236.629990,796.152832 231.363770,795.903381 
M230.072845,775.978882 
	C233.055832,775.665344 236.189407,776.518799 239.290497,775.087646 
	C237.941177,771.268494 235.370819,770.056335 231.910599,770.333069 
	C228.827164,770.579651 226.877014,772.128479 226.091797,775.520569 
	C227.403534,775.710388 228.344666,775.846619 230.072845,775.978882 
z"/>
<path fill="#000000" opacity="1.000000" stroke="none" 
	d="
M342.064026,765.701904 
	C353.216187,760.184265 364.133820,766.874390 364.347992,777.956360 
	C364.410736,781.202332 363.230652,782.424866 360.015717,782.341187 
	C354.392944,782.194946 348.763611,782.300354 343.056122,782.300354 
	C343.935822,788.089905 347.827606,790.605408 352.498047,788.816040 
	C353.707550,788.352600 354.938629,787.664978 355.853455,786.767944 
	C358.178894,784.487488 360.737976,785.025085 362.480499,786.871338 
	C364.351593,788.853821 362.007629,790.533020 360.712158,791.832825 
	C352.938049,799.632690 338.885040,796.181763 335.498840,785.713135 
	C332.973450,777.905701 335.335541,770.361084 342.064026,765.701904 
M349.561584,770.365540 
	C346.228943,770.378174 344.116272,771.916626 342.838623,775.724365 
	C347.557159,775.774780 351.677979,776.611084 356.039795,775.247803 
	C355.124786,772.015503 353.291687,770.510620 349.561584,770.365540 
z"/>
<path fill="#000000" opacity="1.000000" stroke="none" 
	d="
M624.320007,795.600952 
	C616.425842,796.472656 610.746887,793.647583 607.749939,787.655212 
	C604.834106,781.825012 605.929504,773.060486 610.147583,768.469543 
	C614.297913,763.952576 621.562805,762.476196 627.601440,764.922668 
	C632.872620,767.058289 636.483154,773.036072 636.269104,778.865051 
	C636.172485,781.497192 634.912354,782.328857 632.515381,782.299744 
	C628.364197,782.249268 624.210449,782.237244 620.060730,782.334717 
	C618.303345,782.376038 616.396851,781.849243 614.837280,783.164368 
	C616.053833,789.495422 621.638489,791.545166 627.031494,787.252441 
	C630.057617,784.843811 632.289001,785.328918 635.181641,787.476074 
	C633.174438,792.278015 629.684937,794.819397 624.320007,795.600952 
M626.114258,771.978027 
	C620.353394,768.912537 616.606140,770.093811 615.235779,775.754822 
	C619.494141,775.754822 623.663269,775.754822 627.781250,775.754822 
	C628.173462,774.172424 627.334412,773.329285 626.114258,771.978027 
z"/>
<path fill="#000000" opacity="1.000000" stroke="none" 
	d="
M348.916443,828.633972 
	C357.591095,829.255615 362.142578,834.157227 362.416138,842.061829 
	C362.549866,845.924500 360.925720,847.123962 357.450317,846.917236 
	C354.627655,846.749329 351.799377,846.557068 348.974884,846.575562 
	C346.350189,846.592773 343.727234,846.874268 341.091309,847.040161 
	C341.974609,853.154236 347.824921,855.787476 352.863373,852.557129 
	C353.689392,852.027527 354.360931,851.252197 355.087372,850.572815 
	C357.054352,848.733215 358.957489,849.916077 360.510468,851.023499 
	C362.550323,852.478027 360.893921,853.963257 359.968781,855.248779 
	C356.392303,860.218140 348.269928,862.018799 341.804993,859.325623 
	C335.301971,856.616577 331.500793,849.045654 332.878235,841.546265 
	C334.480804,832.821289 339.236420,828.881348 348.916443,828.633972 
M343.702148,836.112610 
	C342.619141,837.093628 341.276947,837.942993 341.900391,840.094666 
	C345.966858,840.980103 350.078949,841.001465 354.313354,840.060608 
	C352.406982,834.588562 350.032410,833.635498 343.702148,836.112610 
z"/>
<path fill="#000000" opacity="1.000000" stroke="none" 
	d="
M204.151886,829.552856 
	C207.919754,828.091431 211.459518,828.437073 214.889832,828.779663 
	C219.331497,829.223328 222.124023,832.067749 223.142349,836.325012 
	C224.784790,843.191467 224.069550,850.215210 224.097000,857.179016 
	C224.108337,860.053223 221.723251,860.558289 219.866898,859.907532 
	C216.676453,858.789062 213.906982,859.592896 210.821030,860.195862 
	C203.396317,861.646423 197.610580,858.292419 196.741852,852.623230 
	C195.832916,846.691711 199.613373,842.243042 206.164536,841.681458 
	C209.428940,841.401611 212.710709,841.324097 216.170227,841.145508 
	C216.367798,838.125916 215.278976,836.355835 212.854645,835.356812 
	C210.057816,834.204346 207.352371,834.777710 205.581604,836.957642 
	C203.164291,839.933472 200.913727,839.406006 198.088120,837.487183 
	C198.127289,833.571838 200.437393,831.281738 204.151886,829.552856 
M204.380981,849.716125 
	C203.969620,853.017517 206.035995,854.554565 208.749023,854.451904 
	C212.628708,854.305054 215.551987,852.400879 216.329285,847.647827 
	C212.081604,847.519226 208.167007,845.971680 204.380981,849.716125 
z"/>
<path fill="#000000" opacity="1.000000" stroke="none" 
	d="
M653.806030,850.567993 
	C658.626892,854.714050 662.045532,855.056580 666.332947,851.309937 
	C668.666931,849.270325 670.845032,849.514709 672.520508,851.158081 
	C674.750549,853.345398 672.327271,855.251953 670.917297,856.570923 
	C666.186279,860.996704 660.423706,861.359497 654.577820,859.537659 
	C648.026611,857.496033 645.190369,852.302124 644.784668,845.858826 
	C644.388733,839.571045 645.893921,833.746094 651.982788,830.531677 
	C657.272034,827.739502 662.872070,827.500488 668.201904,830.587952 
	C672.661621,833.171326 674.160522,837.414734 674.376587,842.384155 
	C674.524292,845.780334 672.932922,846.689148 669.876099,846.652588 
	C665.055481,846.594910 660.228821,846.931885 655.410461,846.830811 
	C652.036987,846.759888 652.874512,848.454102 653.806030,850.567993 
M656.262085,840.613892 
	C659.612183,840.317017 663.123474,841.525024 666.399902,839.776733 
	C663.765686,833.949951 658.134827,832.730408 654.617737,837.038208 
	C653.398865,838.531189 652.709106,840.006592 656.262085,840.613892 
z"/>
<path fill="#000000" opacity="1.000000" stroke="none" 
	d="
M582.843140,854.706421 
	C581.278381,858.612732 579.810120,862.141479 578.462463,865.715759 
	C576.634827,870.563049 572.907288,872.568542 568.018982,872.713562 
	C566.122131,872.769897 563.746887,873.078796 563.584961,870.095459 
	C563.460083,867.794495 563.786682,866.159973 566.839111,865.635071 
	C571.321899,864.864075 573.361267,860.433228 571.674133,856.160339 
	C568.806335,848.897278 565.816162,841.682617 562.950623,834.418762 
	C562.359497,832.920288 561.263855,831.497559 561.713989,829.723633 
	C567.905090,827.572571 568.898743,827.938171 571.117737,833.566345 
	C572.984924,838.302246 574.707581,843.095032 577.007568,849.232605 
	C579.124634,843.278137 580.729370,838.656494 582.410706,834.062927 
	C584.545105,828.231323 585.242798,827.915283 592.210876,829.761414 
	C589.126709,837.988464 586.060059,846.168823 582.843140,854.706421 
z"/>
<path fill="#000000" opacity="1.000000" stroke="none" 
	d="
M428.263855,829.708313 
	C441.777527,825.799377 450.795013,833.027710 448.696136,846.745605 
	C441.893311,846.745605 434.916656,846.745605 427.753418,846.745605 
	C429.417938,853.722473 435.209930,856.039795 439.954559,852.033936 
	C442.796021,849.634949 444.991760,849.318054 447.751160,851.527832 
	C447.022522,856.383545 443.003540,859.844177 437.528473,860.335022 
	C428.830109,861.114868 422.796478,857.484802 420.359375,850.005493 
	C417.758636,842.023987 420.548187,834.548401 428.263855,829.708313 
M436.618622,834.936462 
	C432.224121,833.911499 429.468109,835.591248 427.880737,840.173950 
	C432.608429,840.750244 436.861237,841.149658 441.166351,840.067871 
	C440.760651,837.086426 439.177826,835.997070 436.618622,834.936462 
z"/>
<path fill="#000000" opacity="1.000000" stroke="none" 
	d="
M273.308197,860.360229 
	C266.775818,858.792664 263.740723,855.213013 264.165985,850.075012 
	C264.584167,845.022583 268.476868,841.911011 274.749512,841.644836 
	C276.079529,841.588379 277.418854,841.687866 278.743622,841.584351 
	C280.678589,841.433105 283.226196,841.745972 283.411896,839.023560 
	C283.614838,836.049133 281.012360,835.200989 278.721069,834.789429 
	C276.253845,834.346375 274.097412,835.525146 272.634003,837.483704 
	C270.667114,840.116089 268.284119,839.228271 266.484741,837.922058 
	C264.164398,836.237732 266.143311,834.254578 267.205048,832.763367 
	C270.049347,828.768555 277.759735,827.155640 283.859436,829.065369 
	C288.466614,830.507812 291.212769,834.536987 291.303528,840.277283 
	C291.387726,845.603882 291.296051,850.933167 291.323395,856.260986 
	C291.334106,858.349304 290.494385,860.624756 288.393036,859.792236 
	C283.273346,857.763794 278.634338,861.159180 273.308197,860.360229 
M282.761139,851.253235 
	C283.488464,850.090393 284.269958,848.491821 282.700348,847.873962 
	C279.763763,846.718018 276.570679,846.968018 273.556732,847.834595 
	C272.278107,848.202332 271.428833,849.407715 271.541229,850.902893 
	C271.651855,852.374512 272.673615,853.187683 273.906769,853.796692 
	C277.258301,855.452026 279.901367,854.100891 282.761139,851.253235 
z"/>
<path fill="#000000" opacity="1.000000" stroke="none" 
	d="
M522.665894,778.199951 
	C524.273193,768.741943 529.523804,763.925659 538.035217,763.671204 
	C545.821899,763.438477 552.454041,768.216370 554.081116,775.231018 
	C556.047180,783.707092 552.644714,791.413025 545.566284,794.515320 
	C533.736145,799.700134 522.791443,792.113831 522.665894,778.199951 
M543.444153,787.078186 
	C544.210266,786.217163 545.200378,785.469116 545.702271,784.474731 
	C547.496704,780.919556 547.107117,777.401978 544.855957,774.186523 
	C543.010132,771.549866 540.287476,770.241272 537.129089,770.799194 
	C533.781921,771.390503 531.394714,773.611816 530.634888,776.918945 
	C529.796387,780.568420 529.961731,784.275757 533.171997,786.941406 
	C536.173828,789.434021 539.478638,789.516785 543.444153,787.078186 
z"/>
<path fill="#000000" opacity="1.000000" stroke="none" 
	d="
M232.223724,859.752319 
	C229.603928,856.613831 230.852768,853.189453 230.721375,849.975342 
	C230.497238,844.492493 230.613754,838.993164 230.691193,833.502197 
	C230.715332,831.789551 230.108368,829.572632 232.658478,829.001892 
	C234.927887,828.494019 236.984482,828.798584 237.868286,831.874084 
	C241.122681,829.032593 244.729645,828.287048 248.678635,828.640564 
	C253.842743,829.102905 256.971863,832.040894 258.181274,836.812683 
	C259.878174,843.507874 258.911407,850.391968 259.016022,857.195312 
	C259.054352,859.688416 257.216705,859.992859 255.211044,860.040527 
	C252.880081,860.095947 251.236191,859.365051 251.173950,856.777161 
	C251.069946,852.452881 251.119232,848.124817 250.999664,843.801147 
	C250.889786,839.828735 250.537598,835.802856 245.295502,835.441895 
	C241.116074,835.154175 238.387711,838.561829 238.282974,843.884094 
	C238.210938,847.544189 238.058228,851.218506 238.287460,854.864746 
	C238.557312,859.156982 236.737061,860.687683 232.223724,859.752319 
z"/>
<path fill="#000000" opacity="1.000000" stroke="none" 
	d="
M487.742249,788.280762 
	C487.873383,790.721008 488.324554,792.933350 486.927032,794.504639 
	C485.579315,796.020020 483.483887,795.371338 481.716888,795.093689 
	C480.065491,794.834229 479.815918,793.392517 479.799957,792.013428 
	C479.744141,787.184937 479.732697,782.355896 479.711029,777.527100 
	C479.694519,773.845276 478.138062,771.378479 474.245422,771.117432 
	C470.564362,770.870605 468.364227,772.772461 467.346954,776.296692 
	C465.966736,781.078186 467.250885,785.908386 466.926025,790.706543 
	C466.759857,793.160767 466.732819,795.355225 463.260742,795.349426 
	C459.871155,795.343750 459.596069,793.366394 459.588531,790.783386 
	C459.566650,783.298157 459.573212,775.809204 459.326782,768.329712 
	C459.197662,764.411804 461.719818,764.063599 464.183655,764.818787 
	C467.153503,765.729065 469.623383,764.994812 472.355286,764.205017 
	C480.356781,761.891724 487.098541,766.989624 487.340790,775.355835 
	C487.461212,779.514709 487.575836,783.673706 487.742249,788.280762 
z"/>
<path fill="#000000" opacity="1.000000" stroke="none" 
	d="
M393.653992,766.156250 
	C396.628204,768.746094 397.860321,771.901001 398.038239,775.251892 
	C398.329285,780.734070 398.129791,786.241150 398.184235,791.737244 
	C398.212799,794.619812 396.632965,795.380615 394.037842,795.364319 
	C391.349274,795.347412 390.614288,793.953064 390.638336,791.585266 
	C390.682312,787.254456 390.726532,782.919983 390.597076,778.592163 
	C390.475769,774.537109 388.910767,771.301147 384.394226,770.898132 
	C380.689240,770.567627 377.627502,773.971069 377.404633,778.533264 
	C377.209717,782.522644 377.291077,786.528381 377.337646,790.525818 
	C377.369476,793.258789 377.176178,795.486389 373.450928,795.383789 
	C370.165131,795.293213 369.676422,793.442444 369.691010,790.809753 
	C369.731628,783.479858 369.801392,776.147400 369.650909,768.820251 
	C369.581543,765.442261 371.197540,763.980774 374.169464,764.767029 
	C377.447388,765.634338 380.310669,764.878174 383.362030,764.010071 
	C386.918823,762.998169 390.276703,763.921875 393.653992,766.156250 
z"/>
<path fill="#000000" opacity="1.000000" stroke="none" 
	d="
M469.142761,835.404663 
	C464.132996,836.240906 462.543976,839.493774 462.398834,843.693970 
	C462.255005,847.854980 462.309601,852.024109 462.340332,856.189209 
	C462.357300,858.487793 461.775116,860.082642 459.033905,860.064209 
	C456.556213,860.047607 454.767029,859.469788 454.779724,856.499268 
	C454.813965,848.501892 454.692139,840.502319 454.847687,832.507751 
	C454.914642,829.064636 457.786621,827.376099 460.667419,829.460754 
	C462.840210,831.033020 464.085968,830.347961 465.953186,829.583557 
	C474.784515,825.967957 482.825775,830.938354 483.275482,840.382141 
	C483.520905,845.535767 483.285767,850.710876 483.348175,855.875366 
	C483.378784,858.407898 482.700592,859.982178 479.739929,860.038391 
	C476.672882,860.096619 475.592163,858.740356 475.653137,855.827087 
	C475.747284,851.330627 475.686371,846.829895 475.637512,842.331604 
	C475.593597,838.287842 473.936188,835.606079 469.142761,835.404663 
z"/>
<path fill="#000000" opacity="1.000000" stroke="none" 
	d="
M178.005432,763.666626 
	C186.648346,764.881104 190.201477,768.766968 190.325851,776.841492 
	C190.400101,781.661987 190.280182,786.485168 190.329834,791.306335 
	C190.356400,793.885559 189.521240,795.307922 186.628311,795.370544 
	C183.504349,795.438232 182.558746,794.009338 182.634705,791.138916 
	C182.744614,786.985352 182.651459,782.826294 182.640137,778.669617 
	C182.628922,774.548889 181.152222,771.392761 176.663528,770.862366 
	C173.028122,770.432861 169.805283,773.726318 169.470749,778.297424 
	C169.180161,782.268005 169.381165,786.273743 169.337509,790.263550 
	C169.310333,792.746460 169.736221,795.373779 165.769028,795.351379 
	C162.215591,795.331299 161.714157,793.357605 161.734222,790.524292 
	C161.784866,783.375183 161.815170,776.224121 161.694946,769.076477 
	C161.642532,765.959595 162.873169,763.773804 165.969910,764.803284 
	C170.193466,766.207581 173.734268,764.123108 178.005432,763.666626 
z"/>
<path fill="#000000" opacity="1.000000" stroke="none" 
	d="
M575.609985,770.964355 
	C579.607727,764.739014 585.377686,763.125305 591.830505,763.865417 
	C597.311218,764.493958 601.571716,767.129517 602.806641,773.400940 
	C599.965881,775.811401 597.531494,776.348511 594.449524,773.171021 
	C591.022339,769.637573 586.502197,770.031128 583.458252,773.447327 
	C580.363647,776.920227 580.415405,782.903992 583.568970,786.255920 
	C586.642822,789.523132 591.523987,789.911621 594.597229,786.348633 
	C597.470642,783.017151 599.866943,783.960571 602.725464,785.632812 
	C601.566101,792.246094 596.405701,796.218140 589.159607,796.214294 
	C581.400818,796.210144 574.602295,790.964722 573.782776,783.939758 
	C573.284851,779.671326 573.054993,775.281067 575.609985,770.964355 
z"/>
<path fill="#000000" opacity="1.000000" stroke="none" 
	d="
M606.102722,834.613220 
	C603.990173,835.116638 601.685852,835.563171 601.819153,837.726379 
	C601.971436,840.197144 604.564758,840.166992 606.449097,840.603333 
	C608.545410,841.088684 610.700256,841.362061 612.754822,841.977478 
	C616.410217,843.072510 618.844543,845.466492 619.150208,849.396484 
	C619.442261,853.152100 617.858643,856.240601 614.780090,858.371033 
	C609.679932,861.900330 599.627869,860.940369 595.781372,856.583435 
	C594.499207,855.131042 592.612427,853.126587 594.591614,851.468262 
	C596.207825,850.114014 598.611145,848.528748 600.965332,851.596130 
	C602.819336,854.011780 605.624329,855.304626 608.940002,853.856628 
	C610.243469,853.287354 611.368835,852.607483 611.448853,851.093018 
	C611.537781,849.409790 610.192444,848.833923 608.891235,848.512695 
	C606.805359,847.997742 604.669434,847.689880 602.565613,847.242859 
	C597.168640,846.096130 593.716125,842.321594 593.914612,837.826904 
	C594.124817,833.066833 598.080200,829.308960 603.523376,828.698120 
	C611.568115,827.795471 615.754150,829.875916 618.075500,836.177734 
	C615.634094,838.238831 613.332458,839.235352 610.480774,836.423035 
	C609.498901,835.454773 607.814514,835.198853 606.102722,834.613220 
z"/>
<path fill="#000000" opacity="1.000000" stroke="none" 
	d="
M493.623474,774.299622 
	C492.636200,771.123047 490.562042,768.707825 490.641632,765.582092 
	C497.293213,763.470581 498.229462,764.011414 500.529053,770.180847 
	C502.304108,774.943176 503.207275,780.069763 506.291321,784.900452 
	C508.790771,780.080383 509.977692,775.292847 511.530304,770.650757 
	C513.697815,764.170105 514.266846,763.826050 521.733887,765.188599 
	C520.542786,771.085022 517.469971,776.277832 515.601990,781.875916 
	C514.603271,784.869019 513.215271,787.730408 512.159668,790.706848 
	C511.130310,793.609192 509.746704,795.447876 506.142761,795.460388 
	C502.654205,795.472534 501.036560,794.013977 499.952972,790.986572 
	C497.991486,785.506653 495.815033,780.103699 493.623474,774.299622 
z"/>
<path fill="#000000" opacity="1.000000" stroke="none" 
	d="
M404.976440,771.166504 
	C402.811768,770.384705 401.262115,769.655823 401.362457,767.260193 
	C401.459991,764.932983 403.010376,764.821472 404.738922,764.496338 
	C407.945587,763.893250 407.479187,761.151672 407.585419,758.911316 
	C407.698151,756.534180 407.982056,754.654480 411.095764,754.664185 
	C414.361603,754.674438 414.253296,756.780945 414.357147,759.044983 
	C414.586639,764.050415 414.634308,764.048218 421.855530,765.114929 
	C422.901733,767.970703 422.731049,770.170166 419.036469,770.883057 
	C415.520355,771.561523 413.992462,773.717896 414.315948,777.326477 
	C414.493805,779.310547 414.329224,781.323120 414.377625,783.321472 
	C414.451508,786.369873 415.684692,788.522766 419.033813,788.640442 
	C421.279236,788.719299 422.334076,789.562988 422.311859,791.951782 
	C422.288055,794.521301 420.869690,795.452026 418.666321,795.841736 
	C413.505920,796.754517 409.203003,793.984863 407.537842,788.878967 
	C406.256958,784.951355 406.931122,780.946289 406.717102,776.976746 
	C406.611542,775.019287 407.059296,772.917053 404.976440,771.166504 
z"/>
<path fill="#000000" opacity="1.000000" stroke="none" 
	d="
M621.294922,834.480469 
	C620.384705,831.419556 620.404968,829.135315 624.048767,828.726562 
	C626.797241,828.418335 626.628662,826.136902 626.868347,824.168091 
	C627.159546,821.776306 627.433105,819.454590 630.844849,819.680603 
	C634.144287,819.899292 633.841980,822.369812 633.856628,824.408752 
	C633.879456,827.589539 635.232971,828.963074 638.406128,828.808472 
	C640.393433,828.711609 642.041992,829.239990 642.109680,831.771851 
	C642.179810,834.396484 640.791748,835.435669 638.405334,835.268250 
	C634.736511,835.010681 633.806824,836.987915 633.972412,840.188293 
	C634.109924,842.845459 634.015198,845.513916 634.061157,848.176636 
	C634.111816,851.112000 634.897583,853.558167 638.432861,853.658752 
	C641.009094,853.731995 641.359619,855.279602 641.229614,857.343689 
	C641.098877,859.419373 639.891907,860.089111 637.978210,860.343994 
	C630.975952,861.276367 626.793030,857.741455 626.664307,850.587158 
	C626.607422,847.424988 626.425903,844.241272 626.703247,841.102905 
	C627.053467,837.140930 625.405762,835.167297 621.294922,834.480469 
z"/>
<path fill="#000000" opacity="1.000000" stroke="none" 
	d="
M501.193787,860.364258 
	C495.597870,860.077515 493.170776,857.176941 492.348572,852.225586 
	C491.686859,848.240723 492.044464,844.276489 491.865356,840.307129 
	C491.759979,837.971985 492.037964,835.520569 488.644531,835.180603 
	C486.559906,834.971680 486.751373,833.212891 486.731567,831.728882 
	C486.711884,830.252380 487.208679,828.996094 488.874176,828.926331 
	C492.337250,828.781494 492.787048,826.560242 492.715393,823.799866 
	C492.652161,821.365112 493.319366,819.613953 496.341980,819.683533 
	C499.307220,819.751709 499.461761,821.688599 499.312378,823.758728 
	C499.057892,827.285889 500.330841,829.153442 504.105347,828.843018 
	C506.506592,828.645508 507.898499,829.622498 507.829010,832.256714 
	C507.765015,834.683350 506.352264,835.459167 504.239319,835.278870 
	C500.107788,834.926208 499.014862,837.138611 499.328979,840.762268 
	C499.457520,842.245300 499.342102,843.748901 499.350708,845.243042 
	C499.389648,851.999817 499.977661,852.731018 506.719818,854.262085 
	C508.156006,858.868408 506.273773,860.723328 501.193787,860.364258 
z"/>
<path fill="#000000" opacity="1.000000" stroke="none" 
	d="
M195.447433,770.360168 
	C192.829941,767.641846 192.535065,765.361694 196.549789,764.707397 
	C199.990768,764.146667 199.544098,761.748474 199.639496,759.478577 
	C199.738480,757.123108 199.515900,754.713745 203.076202,754.700928 
	C206.771255,754.687683 206.436722,757.249878 206.300232,759.511841 
	C206.093246,762.942322 207.054306,764.995117 210.950699,764.692932 
	C212.762711,764.552368 214.196991,765.067200 214.284439,767.359985 
	C214.364456,769.458191 213.351013,770.525696 211.423141,770.619751 
	C207.002975,770.835144 205.901291,773.380432 206.306305,777.301270 
	C206.509979,779.273010 206.292526,781.284424 206.389420,783.271851 
	C206.533386,786.224548 207.659561,788.523010 211.009888,788.647888 
	C213.681717,788.747559 214.371597,790.157166 214.250549,792.528076 
	C214.131866,794.852356 212.695877,795.621521 210.710526,795.933289 
	C205.263779,796.788513 200.879898,793.757141 199.578461,788.404846 
	C198.541031,784.138245 198.924255,779.820496 198.849701,775.519958 
	C198.809525,773.202942 198.501694,771.181824 195.447433,770.360168 
z"/>
<path fill="#000000" opacity="1.000000" stroke="none" 
	d="
M153.515930,752.550781 
	C154.738922,765.861816 154.025330,778.833984 154.180984,791.798157 
	C154.216385,794.747192 152.480682,795.348389 149.962631,795.324951 
	C147.450455,795.301575 145.767258,794.676819 145.771652,791.733765 
	C145.789734,779.586548 145.582657,767.436157 145.808014,755.293335 
	C145.914902,749.533875 150.210815,752.006348 153.515930,752.550781 
z"/>
<path fill="#000000" opacity="1.000000" stroke="none" 
	d="
M443.060455,770.008301 
	C443.267944,763.735229 442.534729,757.898438 443.993164,752.254578 
	C451.088593,750.999329 451.336456,751.184753 451.343353,757.989929 
	C451.354370,768.815735 451.321564,779.641541 451.346161,790.467285 
	C451.352234,793.135437 451.324219,795.358093 447.554291,795.411621 
	C443.828400,795.464600 443.044617,793.641479 443.078369,790.491882 
	C443.149780,783.830933 443.074799,777.168274 443.060455,770.008301 
z"/>
<path fill="#000000" opacity="1.000000" stroke="none" 
	d="
M276.579010,753.790405 
	C276.476837,766.187195 276.413788,778.149841 276.382629,790.112427 
	C276.375458,792.866516 276.615906,795.521973 272.461914,795.383484 
	C268.638123,795.255981 268.877380,792.760742 268.878326,790.212585 
	C268.882874,778.082520 268.902679,765.952454 268.869171,753.822510 
	C268.862274,751.328308 269.456238,749.636902 272.432404,749.643372 
	C275.043274,749.649048 277.231262,749.847351 276.579010,753.790405 
z"/>
<path fill="#000000" opacity="1.000000" stroke="none" 
	d="
M253.615356,765.003906 
	C253.632309,760.677490 253.707520,756.849487 253.648727,753.023499 
	C253.607315,750.327698 255.074402,749.675781 257.435822,749.677979 
	C259.865662,749.680237 261.193146,750.559814 261.189484,753.142822 
	C261.171265,765.955933 261.168243,778.769104 261.203369,791.582092 
	C261.210968,794.351807 259.891266,795.356934 257.206635,795.405640 
	C254.313065,795.458008 253.510345,794.167114 253.548233,791.462341 
	C253.669434,782.810669 253.607574,774.156494 253.615356,765.003906 
z"/>
<path fill="#000000" opacity="1.000000" stroke="none" 
	d="
M559.737793,783.969238 
	C559.732605,778.498230 559.770508,773.521912 559.707458,768.546936 
	C559.673889,765.898987 560.684265,764.597473 563.504517,764.609680 
	C566.216003,764.621460 567.397339,765.644470 567.369690,768.428467 
	C567.292358,776.222961 567.334961,784.018982 567.391724,791.814026 
	C567.408936,794.181458 566.741821,795.615356 564.007996,795.480957 
	C561.599304,795.362549 559.715637,794.930298 559.776489,791.927368 
	C559.826782,789.441040 559.755981,786.952209 559.737793,783.969238 
z"/>
<path fill="#000000" opacity="1.000000" stroke="none" 
	d="
M284.654388,786.942871 
	C284.659393,780.491699 284.725739,774.530701 284.641571,768.571777 
	C284.603973,765.910889 285.530884,764.646423 288.363068,764.643555 
	C291.175476,764.640747 292.161163,765.853333 292.136200,768.541626 
	C292.068604,775.825317 292.120087,783.110291 292.151031,790.394653 
	C292.162262,793.036926 292.108093,795.348328 288.372894,795.363098 
	C284.598694,795.378113 284.600525,793.033020 284.654297,790.413879 
	C284.674683,789.420959 284.655548,788.427185 284.654388,786.942871 
z"/>
<path fill="#000000" opacity="1.000000" stroke="none" 
	d="
M568.294128,755.296875 
	C566.835449,758.589172 564.550354,759.509033 561.671753,758.153625 
	C559.474426,757.119080 558.578857,755.144470 559.349854,752.729736 
	C560.138245,750.260437 562.096191,749.458191 564.473145,749.742493 
	C567.488220,750.103149 568.862915,751.857666 568.294128,755.296875 
z"/>
<path fill="#000000" opacity="1.000000" stroke="none" 
	d="
M288.028442,749.726807 
	C291.462616,749.805786 293.162292,751.568420 293.069611,754.369995 
	C292.983948,756.959229 291.062347,758.513367 288.453857,758.659790 
	C286.300201,758.780701 284.490265,757.807373 283.938446,755.589966 
	C283.170166,752.503052 284.448120,750.481323 288.028442,749.726807 
z"/>
<path fill="#000000" opacity="1.000000" stroke="none" 
	d="
M418.704956,338.787964 
	C418.858154,326.119049 409.181366,320.139679 398.334930,318.476532 
	C398.008240,318.426453 397.670380,318.452240 397.338074,318.435425 
	C390.252808,318.076752 386.829193,315.716248 386.792297,311.165619 
	C386.753479,306.374542 390.767731,303.232941 397.753510,303.884491 
	C409.575714,304.987061 417.233398,296.474182 419.444000,286.748840 
	C419.811493,285.131989 419.898926,283.455536 420.908051,282.034698 
	C422.841949,279.311737 425.447876,278.039307 428.689758,278.956482 
	C431.714447,279.812134 433.278320,281.989014 433.385864,285.243195 
	C433.672943,293.930634 429.985779,300.999176 424.521851,307.356476 
	C423.341492,308.729828 422.033722,309.993683 420.407684,311.704681 
	C425.463043,316.357300 429.403900,321.596252 431.220947,328.166656 
	C432.025330,331.075348 432.374390,333.995514 432.369537,337.019226 
	C432.362793,341.221100 430.742462,344.271271 426.499908,345.065094 
	C422.038940,345.899780 419.726074,343.281189 418.704956,338.787964 
z"/>
<path fill="#000000" opacity="1.000000" stroke="none" 
	d="
M563.566223,303.294861 
	C562.280396,299.696686 563.487244,297.414917 566.518494,296.216370 
	C569.298767,295.117065 571.365601,296.525146 572.664307,298.881226 
	C573.937805,301.191711 573.348938,303.494141 571.344788,305.072510 
	C568.418640,307.376984 565.850769,306.419342 563.566223,303.294861 
z"/>
<path fill="#000000" opacity="1.000000" stroke="none" 
	d="
M545.115234,248.073395 
	C542.622253,245.544647 542.461121,243.166504 544.764282,240.907394 
	C546.344360,239.357529 548.412354,239.196945 550.287048,240.120834 
	C552.629517,241.275284 552.809937,243.657166 552.109009,245.724960 
	C551.006042,248.978653 548.563843,249.787506 545.115234,248.073395 
z"/>
<path fill="#000000" opacity="1.000000" stroke="none" 
	d="
M505.387177,209.186829 
	C510.578125,209.607330 512.855957,212.352905 511.372437,215.929596 
	C510.476898,218.088669 508.821259,219.417664 506.381287,219.233505 
	C504.231232,219.071228 502.588104,217.903320 501.977753,215.811966 
	C501.116180,212.859787 502.221954,210.657867 505.387177,209.186829 
z"/>
<path fill="#000000" opacity="1.000000" stroke="none" 
	d="
M501.748657,405.007568 
	C501.881104,401.126312 503.733612,399.429565 507.167389,399.593811 
	C509.683380,399.714172 511.095856,401.136810 511.378876,403.661591 
	C511.671021,406.267700 510.923553,408.457977 508.230713,409.131958 
	C505.083893,409.919586 502.646698,408.880341 501.748657,405.007568 
z"/>
<path fill="#000000" opacity="1.000000" stroke="none" 
	d="
M546.515259,356.237305 
	C545.329041,353.347778 545.217651,350.912567 547.886230,349.362427 
	C549.701538,348.307861 551.713501,348.293610 553.529358,349.535339 
	C555.476746,350.867035 555.620667,352.881592 555.085876,354.883453 
	C554.120422,358.497070 550.861755,359.117645 546.515259,356.237305 
z"/>
</svg>